# xmcd CD database file
#
# Track frame offsets:
#	150
#	29975
#	60393
#	84814
#	106946
#	121593
#	145430
#	164180
#	205340
#	232383
#	255792
#	272867
#	282427
#
# Disc length: 4207 seconds
#
# Revision: 0
# Processed by: cddbd v1.5.2PL0 Copyright (c) Steve Scherf et al.
# Submitted via: CDex 1.70beta3
#
DISCID=c1106d0d
DTITLE=Saitoh Tetsu - Contrabajeando
DYEAR=2001
DGENRE=Jazz
TTITLE0=コントラバヘアンド
TTITLE1=ブエノスアイレスの夏
TTITLE2=夜はしらむ
TTITLE3=花祭り
TTITLE4=ケブラディーナ
TTITLE5=ビリンバウ
TTITLE6=四季の草原　ドゥルブン・ツァギーン・タル
TTITLE7=月ぬ美しゃ ～ 江原道アリラン
TTITLE8=舟の丘、水の舞台　第3景　交錯
TTITLE9=綱 
TTITLE10=サラバンド
TTITLE11=アルマンド
TTITLE12=コントラバヘアンド
EXTD=YEAR: 2001
EXTT0=
EXTT1=
EXTT2=
EXTT3=
EXTT4=
EXTT5=
EXTT6=
EXTT7=
EXTT8=
EXTT9=
EXTT10=
EXTT11=
EXTT12=
PLAYORDER=
